<svg xmlns="http://www.w3.org/2000/svg" viewBox="0 0 63.297 39.359" width="63" height="39"><title>logo</title><path d="M55.277.54c-.375,0-.545-.091-.636,0-.182.091-.363,0-.454,0-.182,0-.182.091-.363.091s-.636.273-.636.182C52.915.722,52.734,1,52.461,1c-.182.182-.363.182-.545.363-.091.182-.091.273-.363.273s-.273.273-.454.363-.363,0-.454.182a1.729,1.729,0,0,1-.909.454c-.273.273-.636.182-.909.363l-.454.454a.9.9,0,0,1-.454.363c0,.363-.091.273-.363.454-.182.273-.091.363-.273.363-.273.091-.182.273-.273.454-.182,0-.182.273-.273.363,0,.182.091.091-.091.273-.273.182-.454.454-.818.545-.182,0-.273.182-.363.182-.182-.091-.182-.091-.363,0a.692.692,0,0,0-.454.182c-.091.091-.091.091-.091.182-.091,0-.182,0-.182.091-.091.273-.727.273-.545.636-.091,0-.273.091-.182.182a2.826,2.826,0,0,1-.818.636c-.182.182-.182.363-.454.363a1.289,1.289,0,0,1-.545.182,2.651,2.651,0,0,0-.818.182,2.468,2.468,0,0,1-.818,0,11.112,11.112,0,0,0-1.726.182c-.636.091-1.363.182-2,.273-.363,0-1.181.091-1.454-.182-.091-.091-.363,0-.545-.182s-.182-.182-.363-.091c-.091,0-.273-.091-.363.091s-.182.091-.363.091c-.273,0-.727-.363-.909-.182s-.636,0-.909,0c-.818,0-1.544-.363-2.362-.363-.091-.091-.363-.091-.545-.182s-.454.091-.636,0a4.953,4.953,0,0,0-1.635-.091c-.182,0-.273.182-.454.182s-.273.091-.454.091a5.109,5.109,0,0,0-1.181,0c-.182.091-.636,0-.727.182,0,.182-.091.091-.182.091-.182.182-.273.182-.545.182a2.967,2.967,0,0,0-1.272.363c-.182.091-.454.091-.545.273-.182.273-.454.091-.727.273s-.636.273-.818.545c-.273.273-.727.454-1,.818a1.681,1.681,0,0,1-.727.636c-.091.091-.545.636-.454.727-.182.273-.545.454-.636.818a4.287,4.287,0,0,1-.636,1.09,5.224,5.224,0,0,0-.363.727c-.182.273,0,.454-.182.636-.182.273.091.636-.182.818a1.133,1.133,0,0,1-.545.727c-.273.273-.545.182-.909.273a1.282,1.282,0,0,1-.818.091c-.182-.091-.273.091-.363.182h-.636a6.431,6.431,0,0,0-1.363.091c-.182.091-.363.091-.545.182a1.15,1.15,0,0,0-.545.091,2.136,2.136,0,0,1-.727.182,3.021,3.021,0,0,1-.909.545,1.516,1.516,0,0,1-1,.818c-.363.182-.727.636-1.181.727-.363.182-.363.454-.727.454a5.164,5.164,0,0,1-1.181.727c-.636.454-1.272,1-1.908,1.363-.273.182-.545.636-.818.727-.363.273-.818.545-.545.909a2.286,2.286,0,0,0,1.272.545,3.315,3.315,0,0,0,1.363.273c.273,0,.545-.091.818-.091.182,0,.091.182.363,0a.68.68,0,0,1,.454-.091.972.972,0,0,0,.545-.182,1.035,1.035,0,0,1,.545-.273c.182-.091.091-.182.273,0,.091.091.182,0,.273,0,.182-.273.273-.091.454-.182.091-.091.545.091.545-.182a1.186,1.186,0,0,0,1.09-.545c.091-.182.727-1,1-1a.686.686,0,0,1-.363.636c-.091.091-.273.454,0,.273.182-.091,0,.182-.091.273s-.182.545-.363.545c.091.363.818-.363.909-.273.182.182.363-.363.545-.182.182,0,.182-.182.363-.182.182-.091.273,0,.454-.091.273-.091.636-.454.909-.273a2.322,2.322,0,0,0,.454-.182c.182-.091.363,0,.545-.091a5.327,5.327,0,0,0,.636-.363c0,.091,0,.091.091.182.091-.091-.091-.273.273-.182,0,.091-.454.454-.454.545.091.091.273-.091.363-.091,0,.091-.182.182-.273.182.182.091.727-.182,1-.182.273-.091.545-.454.818-.454-.091.363.091.091.454.182.182.091.182.182.091.454a.089.089,0,0,0,.091.091c.091,0,.182-.273.363-.182l.182.182c0,.182-.091.273-.182.454V24.8H16.3c-.091.091.182.182,0,.363-.091.091-.273.273-.091.273-.27.086-1.269.994-.633.994,0,.091-.273.363,0,.363,0,.182-.182.091-.091.273.273-.091.091,0,.182.182,0,.182-.182,0-.091.273,0,.091,0,.091-.091.182,0,.363-.454.818-.636,1.09a.91.91,0,0,1-.363.454c-.091.091-.273.182-.273.273,0,.182-.273.454-.454.545-.182.182,0,.091,0,.273.182-.091.091,0,.273,0a2.3,2.3,0,0,1-.363.636c-.273.363.091.091.182.182,0,.182-.363.273-.273.363s.273,0,.363.091c-.091.091,0,.091,0,.182.273-.091.091.182.273.091.091.091,0,.182.182.182-.182.273.091.182.273.091-.091.454-.091.727-.545,1,0,.182.182.091,0,.273-.182,0-.182.091-.091.273,0,.182-.182.182,0,.363-.182.363-.636.545-.636,1-.091.091-.545.636-.091.636-.091.182-.273.273-.363.363-.182.091,0,.091-.091.273-.454.454.454.454.454.636.273.273.454.273.545.545.091.182,0,.454.182.727.182,0,.273.273.454.363a1.289,1.289,0,0,0,.545.182,3.437,3.437,0,0,0,1.363,0c.545,0,1.09-.091,1.635-.091a2.247,2.247,0,0,0,1.272-.727c.273-.273.454-.273.273-.636a.5.5,0,0,0-.182-.454c-.091-.091,0-.363-.091-.454-.091-.182-.273-.182-.454-.182-.273,0-.363.091-.454-.182a2.513,2.513,0,0,1-.091-.818,2.569,2.569,0,0,1,.363-1.363c.091-.182.273-.273.363-.454s.091-.363.273-.545c.273-.363.363-.818.636-1.09.091-.182.091-.273.273-.273s.091-.182.273-.182a1.332,1.332,0,0,0,.454-.545c.182.091.091.363.273.182,0-.273-.091-.363.182-.363.182,0,.636.273.636-.091.091.091.091.273.273.091a.546.546,0,0,0,.091-.363.318.318,0,0,1,.182.091c0-.091.091-.182,0-.273.091,0,.363.182.273-.091-.091-.182.091-.273.091-.454h.273c0-.182.091-.182.182-.273,0,0,.273-.091.273,0,.091.091.454-.636.454-.818s.273-.182.273-.454c.273.091.182-.182.273-.363s.273-.091.363-.363c0-.091,0-.545.182-.363.182.091.182,0,.182-.182.273.091.363-.454.727-.545.273,0,.636-.545.636-.818.091,0,.091.182.182.182.182-.182.091-.182.273-.363s.273-.545.545-.636c.182.273.363-.273.363,0,0,.091.182.182.182.363.091.182.273-.091.363-.091s.091.273.273,0c.091,0,.091.182.091.273a.334.334,0,0,0,.091-.273c.182.091.091.273.273.363,0-.091.273-.182.273-.273.091,0,.363-.363.454-.363.182.091,0,.636.273.182.091.091.091.363.091.545.182,0,.091-.363.273-.363,0,.273-.091.636.091.818.091-.091.091-.273.182-.363.182,0-.091.182.273,0,.182-.091.273-.091.454-.182,0,0,0,.454.273,0a.318.318,0,0,1,.091.182c.091,0,.091-.091.182-.091a.2.2,0,0,0,.182.182c0,.182.182.182.182,0a.318.318,0,0,0,.091.182c.091,0,.182,0,.182.091a.174.174,0,0,0,.273-.091c.273.182.182.273.363.454.091-.182.091-.273.182-.454h.182a.318.318,0,0,0,.091.182c.182-.091.182-.273.273-.273.091.182,0,.454.182.454a.543.543,0,0,0,.091.363c.182-.091.273-.363.454-.363,0,.091,0,.454.091.545a1.209,1.209,0,0,0,.273-.454s.182.182.182.273c.182-.091.091-.091.273,0,0,.273.091.182.091.363.182-.091.091-.273.091-.454.363.091.182.454.454.727.182-.363,0-.363.363-.182l.363.091c.091-.091.091.091.273.091a1.311,1.311,0,0,0,.182.636c.273-.273.273.091.454.273.091-.182.273-.363.363-.545.091,0,.182.182.182.273.091,0,.091,0,.182-.091a.785.785,0,0,0,.273.545c.091-.091,0-.182,0-.273.182.091.273,0,.273.182,0,.273.182.091.182.182.091.091.273.454.182.636,0,.363.182,0,.363,0,0,.182-.091.363-.091.545,0,.091.091.273.091.363s.091.363.091.273c.363.091.363.182.363.273-.182-.091-.091.545-.091.727,0,.091.091.273.091.363a.334.334,0,0,0-.091.273c.091.182.091-.091.182.182v.273c0,.091-.091.363.091.273l.273.545c0,.182.091.273-.091.363a.318.318,0,0,0,.091.182c.091,0,.091-.182.182-.182,0,.273-.273.727-.091,1,.182,0,.273-.182.363-.273,0,0-.091.454.182.454,0,.273-.182.273.091.545.091,0,.182-.091.363-.091,0,.273,0,.363.273.363,0,.182.091.091.182.091.091.273,0,.182.273.182,0,.182.091.363.363.182.091,0,.091.182.091.273.091,0,.182-.091.273-.182a.4.4,0,0,1,.091.454c0,.182-.182.273-.091.454.182.091.091.273.363.363-.091.363.545.182.636.454.182.273.454.273.545.454a.9.9,0,0,0,.454.363,5.408,5.408,0,0,0,2.635.454,11.564,11.564,0,0,0,1.726-.091,1.57,1.57,0,0,0,.909-.091,4.419,4.419,0,0,1,.636-.273c.545-.182.273-.909,0-1.272-.091-.182,0-.363-.273-.363.091-.182-.454-.545-.545-.636-.273-.091-.454.182-.727-.091-.091-.182-.273-.273-.363-.454a1.735,1.735,0,0,1-.545-1.454,7.744,7.744,0,0,0,0-1.454c0-.273.091-.454.091-.727,0-.182-.091-.454,0-.636.091-.454-.091-1,0-1.544.091-.363,0-.727.091-1.09a2.169,2.169,0,0,0,.273-.818.815.815,0,0,1,.091-.454c.182.363.182-.091.182-.273.363.091.273-.182.273-.454.091,0,.091.091.182.182a1.209,1.209,0,0,0,.273-.454c.091,0,.273.182.273,0s-.091-.273.091-.363c.363-.182,0-.273.182-.545.091-.091.091-.273.273-.273.454.091,0-.363.454-.545.091-.091.182,0,.273-.091,0-.182,0-.182.182-.182.091,0,.182-.182.182-.273.182.091.273.182.273-.091a.334.334,0,0,0,.273-.091c0-.182.182-.091.182-.363s.182-.182.182-.454c.182.091.091.091.273,0,0,0,.454.091.545,0a.683.683,0,0,0-.091-.363c.182,0,.363,0,.273-.091.182,0,.182-.182.182-.363s.091-.182.091-.363a3.307,3.307,0,0,0,.182-1.363c.182.091.545.273.363-.091-.091-.182.091-.182,0-.273a4.066,4.066,0,0,1-.091-1c.363.091,0-.182.091-.363.182-.273-.091-.182-.091-.454,0-.091.091-.273.091-.363-.091-.091-.091-.091-.091-.182,0-.182.182-.273.182-.454.273.182.182-.273.363-.545.091-.091-.182-.545.091-.545,0,.182.182.091.182,0,.454.182.091-.363.182-.545,0-.182.091-.363,0-.454,0-.091-.182-.454-.273-.454,0-.091.363-.636.273-.636.182.091.182-.091.091-.182a2,2,0,0,1-.091-.727c.454.273.091-.363,0-.545.182,0,.636-.363.363-.545,0-.091,0-.363.091-.363.091-.182.091-.273.363-.273.091,0,.545,0,.636.091s.273,0,.454,0h.727c.273.091.454.182.727,0a1.922,1.922,0,0,1,.636-.273c.454-.182.636-.727.818-1.181.091-.273.363-.545.454-.818.182-.273.363-.636.545-.909a3.112,3.112,0,0,0,.545-.545c.091-.273.182-.454.273-.727.091-.454.363-1.181-.273-1.363-.273-.091-.454-.273-.727-.273-.182-.091-.182-.273-.363-.273a.334.334,0,0,1-.273-.091c-.273-.182-1.09-.091-1.181-.636-.091-.363-.727-.273-.545-.818.182-.454-.182-.636-.182-1-.091-.363-.545-1.272-1-1.181S57.209.814,56.846,1a.543.543,0,0,1-.363-.091C56.3.723,56.3.905,56.12.814s-.182-.182-.363-.091-.182-.091-.363-.091C55.459.54,55.368.54,55.277.54Z" fill="#fff" stroke="#cd1619"/></svg>
