<svg version="1.1" id="Layer_1" xmlns="http://www.w3.org/2000/svg" xmlns:xlink="http://www.w3.org/1999/xlink" x="0px" y="0px"
	 viewBox="0 0 300.29 43.88" style="enable-background:new 0 0 300.29 43.88;" wisdth="301" height="44" xml:space="preserve">
<style type="text/css">
	.st0{fill:none;stroke:#575756;stroke-width:0.578;}
	.st1{fill:#CD1719;}
	.st2{fill:#575756;}
</style>
<path id="wdd-logo-dog" class="st0" d="M61.95,0.5c-0.08-0.43-0.6-0.08-0.75,0.04c-0.16,0.13-0.37,0.04-0.55,0.03
	c-0.16-0.01-0.22,0.1-0.38,0.09c-0.16-0.02-0.7,0.3-0.73,0.25c-0.33-0.07-0.5,0.19-0.78,0.23c-0.17,0.2-0.45,0.16-0.59,0.37
	c-0.11,0.16-0.14,0.31-0.36,0.32c-0.27,0.01-0.28,0.31-0.48,0.42c-0.21,0.12-0.38,0.02-0.55,0.22c-0.22,0.25-0.73,0.51-1.05,0.54
	c-0.26,0.27-0.71,0.22-1,0.45c-0.14,0.11-0.53,0.5-0.56,0.48c-0.13,0.2-0.36,0.27-0.55,0.38c-0.03,0.39-0.06,0.31-0.37,0.49
	c-0.19,0.11-0.14,0.22-0.37,0.3c-0.31,0.1-0.16,0.29-0.29,0.52c-0.25,0-0.21,0.29-0.35,0.4c0.02,0.22,0.14,0.13-0.13,0.33
	c-0.31,0.22-0.51,0.54-0.94,0.61c-0.19,0.03-0.28,0.25-0.44,0.18c-0.16-0.07-0.17-0.08-0.37-0.04c-0.18,0.03-0.39,0.05-0.5,0.21
	c-0.06,0.07-0.08,0.15-0.06,0.24c-0.1,0-0.17,0.04-0.2,0.12c-0.12,0.26-0.86,0.32-0.65,0.71c-0.09,0.03-0.35,0.07-0.2,0.2
	c-0.23,0.29-0.62,0.46-0.88,0.71c-0.21,0.2-0.17,0.45-0.5,0.45c-0.24,0.07-0.38,0.18-0.64,0.19c-0.35,0.02-0.62,0.09-0.95,0.2
	c-0.29,0.09-0.62,0.02-0.92,0.02c-0.63-0.01-1.3,0.12-1.93,0.22c-0.75,0.12-1.49,0.24-2.24,0.3c-0.4,0.03-1.31,0.11-1.59-0.16
	c-0.14-0.13-0.37-0.01-0.57-0.17c-0.21-0.18-0.16-0.16-0.41-0.07c-0.1,0.03-0.33-0.08-0.39,0.06c-0.08,0.19-0.22,0.14-0.45,0.13
	c-0.29-0.01-0.81-0.36-1.03-0.15c-0.18,0.17-0.75,0.04-1.02-0.02c-0.9,0-1.73-0.37-2.61-0.37c-0.1-0.13-0.39-0.12-0.57-0.18
	c-0.24-0.08-0.48,0.06-0.73-0.01c-0.59-0.16-1.2-0.14-1.83-0.08c-0.24,0.02-0.27,0.17-0.5,0.17c-0.2,0-0.31,0.08-0.5,0.13
	c-0.42-0.01-0.97-0.12-1.36,0.04c-0.2,0.08-0.76,0.01-0.83,0.25c-0.04,0.17-0.13,0.06-0.25,0.11c-0.18,0.25-0.33,0.2-0.63,0.23
	c-0.62,0.06-0.93,0.14-1.46,0.45c-0.17,0.1-0.52,0.11-0.63,0.28c-0.2,0.32-0.55,0.11-0.84,0.3c-0.33,0.23-0.67,0.32-0.96,0.61
	c-0.35,0.35-0.84,0.53-1.13,0.95c-0.25,0.35-0.45,0.49-0.8,0.71c-0.12,0.08-0.62,0.73-0.55,0.8c-0.22,0.33-0.59,0.52-0.75,0.9
	c-0.2,0.49-0.41,0.8-0.74,1.21c-0.2,0.26-0.26,0.57-0.46,0.82c-0.22,0.29-0.04,0.47-0.25,0.75c-0.23,0.31,0.07,0.69-0.25,0.95
	c-0.08,0.37-0.34,0.61-0.61,0.86c-0.3,0.29-0.62,0.18-0.99,0.3c-0.3,0.1-0.59,0.21-0.9,0.13c-0.2-0.05-0.29,0.12-0.46,0.18
	c-0.25-0.01-0.5,0-0.75-0.01c-0.47-0.02-1.09-0.02-1.54,0.12c-0.2,0.06-0.4,0.12-0.6,0.18c-0.22,0-0.44-0.04-0.63,0.08
	c-0.17,0.11-0.62,0.23-0.82,0.23c-0.3,0.31-0.65,0.41-1.03,0.61c0.11,0.3-0.55,0.38-0.75,0.5c-0.44,0.26-0.82,0.67-1.29,0.87
	c-0.37,0.16-0.44,0.48-0.84,0.52C5.04,24.15,4.41,24.4,4,24.68c-0.73,0.5-1.4,1.16-2.18,1.56c-0.33,0.17-0.56,0.73-0.93,0.81
	c-0.33,0.21-0.84,0.53-0.47,0.95c0.4,0.45,0.91,0.47,1.47,0.64c0.52,0.17,0.96,0.27,1.51,0.28c0.33,0.01,0.59-0.06,0.94-0.08
	c0.25-0.02,0.08,0.17,0.38-0.01c0.15-0.09,0.31-0.11,0.48-0.14c0.24-0.03,0.46-0.07,0.66-0.22c0.15-0.11,0.39-0.28,0.57-0.29
	c0.19-0.08,0.06-0.22,0.3-0.04c0.13,0.1,0.17,0.02,0.33,0.04c0.16-0.28,0.32-0.14,0.53-0.23C7.72,27.89,8.15,28,8.15,27.7
	c0.43,0.15,0.96-0.09,1.23-0.51c0.15-0.24,0.85-1.08,1.13-1.08c0.01,0.36-0.14,0.5-0.37,0.73c-0.06,0.05-0.27,0.47-0.04,0.33
	c0.23-0.15-0.04,0.23-0.08,0.3c-0.09,0.14-0.16,0.6-0.4,0.6c0.13,0.4,0.9-0.39,1.01-0.3c0.21,0.19,0.42-0.36,0.57-0.21
	c0.16-0.02,0.24-0.16,0.38-0.2c0.19-0.05,0.27,0.04,0.49-0.07c0.27-0.14,0.67-0.48,0.98-0.34c0.11,0.05,0.46-0.19,0.54-0.25
	c0.16-0.13,0.44-0.04,0.59-0.15c0.21-0.15,0.44-0.25,0.67-0.36c0.02,0.07,0.02,0.12,0.08,0.18c0.14-0.14-0.06-0.32,0.33-0.23
	c-0.05,0.15-0.51,0.52-0.48,0.58c0.08,0.13,0.29-0.06,0.4-0.06c-0.05,0.13-0.2,0.19-0.3,0.25c0.15,0.15,0.84-0.16,1.08-0.25
	c0.27-0.1,0.62-0.53,0.88-0.53c-0.09,0.37,0.13,0.06,0.52,0.16c0.23,0.06,0.21,0.26,0.06,0.47c0.02,0.07,0.08,0.1,0.08,0.15
	c0.12-0.04,0.21-0.29,0.37-0.19c0.07,0.07,0.15,0.12,0.23,0.16c-0.01,0.17-0.14,0.3-0.16,0.47c0.04,0.08,0.05,0.17,0.01,0.26
	c-0.04,0.01-0.08-0.01-0.1-0.05c-0.1,0.1,0.17,0.17,0.01,0.41c-0.07,0.1-0.33,0.3-0.06,0.34c-0.08,0.23-1.22,1.34-0.57,1.33
	c-0.03,0.13-0.32,0.38-0.02,0.38c-0.02,0.18-0.17,0.13-0.07,0.3c0.27-0.1,0.14,0.03,0.25,0.2c-0.05,0.23-0.23,0.01-0.14,0.3
	c0.05,0.09,0.03,0.15-0.06,0.17c0,0.41-0.48,0.89-0.7,1.21c-0.14,0.21-0.21,0.37-0.4,0.54c-0.07,0.07-0.31,0.19-0.36,0.26
	c-0.03,0.21-0.33,0.48-0.48,0.66c-0.2,0.25-0.05,0.08-0.05,0.29c0.23-0.08,0.06-0.03,0.3,0.02c-0.06,0.24-0.21,0.52-0.37,0.71
	c-0.33,0.4,0.15,0.1,0.22,0.17c-0.03,0.17-0.4,0.31-0.33,0.45c0.05,0.11,0.31,0.04,0.43,0.08c-0.08,0.08-0.05,0.14,0,0.23
	c0.26-0.09,0.06,0.23,0.33,0.15c0.1,0.08,0.01,0.19,0.23,0.25c-0.22,0.34,0.1,0.19,0.33,0.15c-0.11,0.48-0.14,0.79-0.62,1.08
	c0.03,0.17,0.21,0.15-0.02,0.31c-0.16,0.03-0.21,0.12-0.15,0.27c-0.01,0.17-0.25,0.24-0.04,0.38c-0.19,0.4-0.7,0.6-0.75,1.08
	c-0.07,0.12-0.63,0.68-0.15,0.7c-0.06,0.17-0.31,0.33-0.45,0.43c-0.17,0.13,0.04,0.13-0.1,0.3c-0.39,0.49,0.63,0.49,0.63,0.75
	c0.28,0.27,0.47,0.34,0.61,0.63c0.1,0.22,0.01,0.54,0.15,0.8c0.18,0.03,0.31,0.29,0.53,0.4c0.19,0.1,0.39,0.16,0.6,0.22
	c0.52,0.13,0.98,0.06,1.49-0.05c0.62,0,1.19-0.06,1.81-0.15c0.66-0.1,0.97-0.37,1.43-0.82c0.27-0.26,0.47-0.33,0.33-0.75
	c-0.02-0.25-0.03-0.3-0.21-0.47c-0.12-0.12,0.01-0.36-0.09-0.53c-0.09-0.17-0.28-0.23-0.46-0.24c-0.34-0.03-0.42,0.15-0.53-0.22
	c-0.1-0.32-0.08-0.63-0.1-0.96c-0.12-0.55,0.17-1.07,0.45-1.53c0.1-0.17,0.34-0.29,0.45-0.48c0.13-0.22,0.08-0.46,0.32-0.6
	c0.29-0.38,0.41-0.88,0.68-1.26c0.11-0.16,0.09-0.31,0.3-0.32c0.16-0.01,0.15-0.22,0.27-0.2c0.07,0.01,0.48-0.5,0.48-0.59
	c0.17,0.09,0.1,0.39,0.33,0.25c-0.01-0.27-0.06-0.43,0.22-0.38c0.19,0.03,0.68,0.32,0.71-0.12c0.14,0.05,0.13,0.26,0.3,0.13
	c0.11-0.08,0.08-0.27,0.08-0.39c0.09,0.03,0.16,0.12,0.25,0.15c0.05-0.1,0.06-0.21,0.05-0.33c0.08,0.03,0.38,0.19,0.29-0.09
	c-0.06-0.17,0.13-0.34,0.14-0.52c0.11,0.04,0.22,0.03,0.33-0.03c0-0.25,0.09-0.18,0.23-0.35c0.04-0.02,0.28-0.05,0.32-0.02
	c0.12,0.13,0.49-0.72,0.52-0.88c0.05-0.21,0.31-0.2,0.34-0.46c0.27,0.08,0.2-0.25,0.35-0.43c0.15-0.18,0.35-0.12,0.45-0.4
	c0.04-0.05-0.02-0.63,0.24-0.45c0.17,0.12,0.22-0.03,0.21-0.21c0.35,0.1,0.45-0.48,0.78-0.61c0.32,0,0.75-0.6,0.75-0.93
	c0.08,0.05,0.08,0.17,0.18,0.2c0.25-0.19,0.1-0.23,0.29-0.38c0.25-0.2,0.33-0.56,0.61-0.7c0.16,0.26,0.43-0.28,0.46-0.03
	c0.01,0.12,0.16,0.24,0.22,0.36c0.08,0.16,0.33-0.08,0.38-0.15c0.13,0,0.13,0.29,0.28,0.05c0.08,0.05,0.09,0.21,0.15,0.27
	c0.06-0.1,0.09-0.21,0.07-0.33c0.25,0.07,0.25-0.13,0.33,0.22c-0.16,0.03-0.16,0.14-0.02,0.23c-0.04-0.07,0.23,0,0.24,0
	c0.15,0.02,0.12-0.19,0.11-0.27c0.15-0.03,0.39-0.42,0.5-0.39c0.19,0.06-0.05,0.68,0.28,0.22c0.13,0.09,0.05,0.45,0.13,0.6
	c0.2,0,0.14-0.43,0.33-0.43c0.01,0.27-0.15,0.75,0.05,0.95c0.08-0.12,0.14-0.28,0.25-0.38c0.18-0.02-0.1,0.17,0.26,0.01
	c0.22-0.1,0.3-0.1,0.49-0.17c0.03,0.03-0.02,0.51,0.28,0.02c0.04,0.02,0.1,0.13,0.1,0.17c0.1-0.03,0.08-0.13,0.17-0.13
	c0.02,0.15,0.1,0.21,0.23,0.17c0.03,0.16,0.17,0.16,0.25,0.03c0.05,0.08,0.08,0.16,0.1,0.25c0.11-0.05,0.17-0.02,0.18,0.09
	c0.1,0.15,0.26-0.04,0.32-0.14c0.33,0.16,0.16,0.34,0.38,0.55c0.08-0.15,0.12-0.33,0.22-0.48c0.03-0.03,0.08,0.04,0.17-0.05
	c0.03,0.08,0.06,0.17,0.15,0.2c0.05-0.1,0.07-0.25,0.17-0.3c0.08,0.16,0.01,0.5,0.23,0.5c0.02,0.15-0.03,0.31,0.05,0.45
	c0.2-0.07,0.32-0.4,0.52-0.4c0.01,0.14-0.03,0.55,0.13,0.6c0.06-0.1,0.33-0.4,0.32-0.5c0.04,0.03,0.18,0.23,0.18,0.27
	c0.17-0.06,0.13-0.06,0.35-0.05c0,0.26,0.15,0.25,0.15,0.43c0.18-0.06,0.13-0.32,0.15-0.48c0.42,0.14,0.25,0.55,0.53,0.83
	c0.21-0.39,0.02-0.42,0.38-0.23c0.03,0.02,0.39,0.08,0.38,0.09c0.12-0.08,0.12,0.13,0.27,0.13c0.03,0.18,0.06,0.66,0.25,0.73
	c0.34-0.32,0.34,0.11,0.55,0.32c0.14-0.21,0.33-0.39,0.38-0.65c0.12,0,0.18,0.22,0.25,0.33c0.08-0.02,0.15-0.05,0.23-0.08
	c0.01,0.23,0.12,0.44,0.28,0.6C44.05,31.35,44,31.3,44,31.13c0.16,0.05,0.3-0.01,0.3,0.15c0,0.33,0.17,0.13,0.26,0.22
	c0.14,0.15,0.34,0.5,0.2,0.7c0.04,0.38,0.23,0.05,0.38,0.05c0,0.21-0.07,0.41-0.07,0.62c0,0.13,0.12,0.31,0.1,0.44
	c-0.02,0.15,0,0.26,0,0.38c0.06-0.01,0.1-0.05,0.13-0.1c0.11,0.06,0.1,0.2,0.1,0.3c-0.19-0.07-0.23,0.1-0.03,0.1
	c-0.03,0.24-0.09,0.47-0.1,0.71c-0.01,0.14,0.1,0.26,0.1,0.41c-0.07,0.1-0.08,0.2-0.05,0.31c0.06,0.23,0.15-0.06,0.18,0.24
	c0.01,0.11,0.02,0.23,0.01,0.34c-0.01,0.07-0.05,0.39,0.08,0.26c0.05,0.03,0.29,0.58,0.29,0.6c0.02,0.15,0.06,0.34-0.09,0.45
	c0.01,0.08,0.1,0.16,0.1,0.23c0.13-0.05,0.08-0.23,0.25-0.23c-0.01,0.34-0.28,0.81-0.1,1.11c0.2-0.02,0.27-0.21,0.44-0.29
	c0.01-0.01-0.06,0.52,0.24,0.51c-0.03,0.34-0.18,0.34,0.08,0.63c0.13-0.02,0.25-0.15,0.38-0.15c-0.02,0.27,0.01,0.45,0.35,0.45
	c-0.03,0.25,0.07,0.13,0.2,0.13c0.06,0.33,0.05,0.21,0.35,0.17c0.01,0.21,0.12,0.42,0.38,0.25c0.15,0,0.06,0.23,0.13,0.35
	c0.11-0.04,0.2-0.11,0.28-0.2c0.06,0.15,0.18,0.33,0.15,0.5c-0.03,0.19-0.25,0.34-0.05,0.48c0.19,0.14,0.07,0.28,0.38,0.38
	c-0.08,0.44,0.57,0.21,0.74,0.51c0.16,0.28,0.46,0.34,0.61,0.56c0.12,0.16,0.32,0.27,0.49,0.37c0.98,0.54,1.91,0.53,3.01,0.49
	c0.63-0.02,1.26-0.04,1.89-0.06c0.35-0.01,0.67,0.06,0.99-0.12c0.25-0.14,0.45-0.24,0.72-0.34c0.66-0.23,0.31-1.05,0.03-1.47
	c-0.15-0.21,0.04-0.4-0.27-0.39c0.06-0.16-0.48-0.64-0.65-0.69c-0.32-0.09-0.52,0.24-0.77-0.1c-0.13-0.18-0.32-0.29-0.45-0.46
	c-0.39-0.52-0.69-0.9-0.58-1.59c0.09-0.56,0.03-1.07,0.04-1.63c0.01-0.28,0.11-0.55,0.08-0.83c-0.02-0.22-0.06-0.48-0.02-0.69
	c0.12-0.54-0.06-1.14,0.02-1.7c0.06-0.39-0.02-0.86,0.12-1.24c0.11-0.31,0.32-0.56,0.34-0.89c0.01-0.16,0.01-0.34,0.13-0.46
	c0.25,0.44,0.23-0.14,0.23-0.35c0.4,0.13,0.27-0.2,0.27-0.55c0.07,0.04,0.12,0.12,0.18,0.18c0.08-0.15,0.27-0.41,0.27-0.55
	c0.11,0.02,0.3,0.24,0.28-0.01c-0.01-0.16-0.13-0.33,0.07-0.42c0.38-0.17,0.03-0.3,0.25-0.59c0.1-0.14,0.09-0.33,0.34-0.28
	c0.46,0.09,0.04-0.45,0.49-0.66c0.12-0.06,0.22,0.05,0.28-0.13c-0.04-0.16,0.02-0.22,0.17-0.17c0.1-0.04,0.17-0.2,0.17-0.3
	c0.17,0.06,0.3,0.24,0.35-0.13c0.12,0.02,0.23,0,0.26-0.14c0.04-0.24,0.24-0.08,0.19-0.36c-0.05-0.27,0.23-0.23,0.25-0.5
	c0.19,0.07,0.07,0.1,0.28,0.02c0.02,0.05,0.13,0.18,0.13,0.23c0.21-0.08,0.1,0.02,0.3,0.02c0.11-0.11,0.09-0.14,0.23-0.23
	c0-0.15,0.01-0.25-0.08-0.38c0.16-0.04,0.21-0.12,0.15-0.23c-0.05-0.08-0.06-0.12,0.05-0.17c0.04,0.1,0.17,0.26,0.09,0.35
	c-0.07,0.02-0.08,0.06-0.04,0.1c0.08,0.14,0.16-0.01,0.15-0.11c0.21,0.01,0.24-0.25,0.2-0.4c-0.05-0.2,0.08-0.16,0.07-0.45
	c0.16-0.48,0.2-0.95,0.2-1.48c0.17,0.05,0.57,0.3,0.43-0.08c-0.06-0.17,0.07-0.16,0.04-0.3c-0.08-0.38-0.13-0.77-0.1-1.16
	c0.39,0.08,0-0.25,0.1-0.4c0.18-0.27-0.07-0.2-0.06-0.5c0.01-0.11,0.14-0.35,0.06-0.45c-0.07-0.07-0.1-0.15-0.08-0.25
	c0-0.17,0.17-0.34,0.17-0.48c0.35,0.16,0.17-0.3,0.38-0.59c0.1-0.13-0.22-0.64,0.07-0.64c0,0.19-0.02,0.16,0.1,0.28
	c0.12-0.08,0.14-0.2,0.07-0.35c0.56,0.19,0.06-0.46,0.22-0.63c-0.01-0.16,0.08-0.44,0.05-0.55c-0.02-0.09-0.21-0.5-0.28-0.55
	c0-0.06,0.37-0.67,0.34-0.69c0.2,0.11,0.16-0.1,0.12-0.23c-0.08-0.27-0.11-0.54-0.07-0.81c0.54,0.3,0.06-0.42,0.05-0.63
	c0.22-0.02,0.7-0.36,0.38-0.58c0.02-0.08,0.17-0.18,0.07-0.27c-0.05-0.03-0.07-0.07-0.05-0.13c0.14-0.19,0.06-0.26,0.43-0.26
	c0.15,0,0.58-0.02,0.69,0.08c0.1,0.1,0.36-0.03,0.51-0.01c0.3,0.04,0.56,0.04,0.86,0.03c0.3,0.07,0.53,0.24,0.81,0
	c0.26-0.22,0.4-0.17,0.69-0.26c0.53-0.18,0.75-0.84,0.91-1.36c0.11-0.35,0.39-0.59,0.49-0.94c0.17-0.33,0.36-0.73,0.57-1.03
	c0.17-0.24,0.45-0.35,0.59-0.61c0.14-0.26,0.23-0.56,0.31-0.84c0.15-0.53,0.4-1.37-0.35-1.55c-0.35-0.08-0.5-0.26-0.81-0.35
	c-0.17-0.12-0.18-0.27-0.42-0.27c-0.13,0.01-0.24-0.03-0.34-0.11c-0.34-0.2-1.2-0.11-1.28-0.68c-0.06-0.44-0.86-0.32-0.64-0.97
	c0.16-0.47-0.21-0.73-0.21-1.12c-0.12-0.37-0.61-1.41-1.11-1.35c-0.5,0.06-0.98-0.81-1.38-0.66c-0.09,0.04-0.3-0.03-0.38-0.11
	c-0.21-0.23-0.24-0.02-0.45-0.15c-0.19-0.11-0.17-0.25-0.45-0.08c-0.22,0.13-0.18-0.06-0.4-0.12C62.15,0.45,62.05,0.46,61.95,0.5"/>
<g id="wdd-logo-text">
	<polygon class="st1" points="98.6,32.26 98.31,32.26 94.88,23.71 91.41,32.26 91.12,32.26 86.89,21.72 88.39,21.72 91.27,28.92
		94.17,21.72 95.59,21.72 98.51,28.92 101.36,21.72 102.84,21.72 	"/>
	<rect x="110.43" y="21.72" class="st1" width="1.5" height="10.45"/>
	<polygon class="st1" points="122.13,30.82 126.85,30.82 126.85,32.17 120.63,32.17 120.63,21.72 122.13,21.72 	"/>
	<path class="st1" d="M136.08,30.82h2.39c3.4,0,4.18-2.59,4.18-3.88c0-2.1-1.33-3.88-4.26-3.88h-2.31V30.82z M134.58,21.72h4.06
		c3.86,0,5.56,2.76,5.56,5.23c0,2.68-2.1,5.23-5.55,5.23h-4.08V21.72z"/>
	<path class="st1" d="M153.98,30.82h2.39c3.4,0,4.18-2.59,4.18-3.88c0-2.1-1.33-3.88-4.26-3.88h-2.31V30.82z M152.48,21.72h4.06
		c3.86,0,5.56,2.76,5.56,5.23c0,2.68-2.1,5.23-5.55,5.23h-4.08V21.72z"/>
	<path class="st1" d="M175.51,30.93c2.34,0,4.08-1.7,4.08-3.98c0-2.3-1.73-3.98-4.08-3.98c-2.33,0-4.06,1.69-4.06,3.98
		C171.45,29.22,173.18,30.93,175.51,30.93 M175.51,21.58c3.45,0,5.62,2.45,5.62,5.36c0,2.82-2.11,5.36-5.65,5.36
		c-3.42,0-5.58-2.53-5.58-5.36C169.9,24.05,172.12,21.58,175.51,21.58"/>
	<path class="st1" d="M198.54,31.45c-1.39,0.61-2.53,0.86-3.98,0.86c-3.2,0-5.56-2.24-5.56-5.3c0-3.08,2.42-5.42,5.61-5.42
		c1.23,0,2.08,0.2,3.72,0.89v1.52c-1.23-0.67-2.5-1.03-3.75-1.03c-2.27,0-4.03,1.73-4.03,4c0,2.33,1.75,3.97,4.23,3.97
		c0.81,0,1.55-0.18,2.27-0.41v-3.49h1.5V31.45z"/>
	<path class="st2" d="M217.9,30.82h2.39c3.4,0,4.18-2.59,4.18-3.88c0-2.1-1.33-3.88-4.26-3.88h-2.32V30.82z M216.4,21.72h4.06
		c3.86,0,5.56,2.76,5.56,5.23c0,2.68-2.1,5.23-5.55,5.23h-4.08V21.72z"/>
	<polygon class="st2" points="240.21,23.07 235.78,23.07 235.78,26.22 238.43,26.22 238.43,27.57 235.78,27.57 235.78,30.82
		240.35,30.82 240.35,32.17 234.28,32.17 234.28,21.72 240.21,21.72 	"/>
	<path class="st2" d="M253.31,24.02c-0.89-0.84-1.75-1.09-2.45-1.09c-0.97,0-1.66,0.5-1.66,1.24c0,2.01,4.52,1.98,4.52,5.3
		c0,1.64-1.24,2.84-2.93,2.84c-1.13,0-2.05-0.31-2.92-0.97v-1.9c0.76,0.98,1.73,1.52,2.76,1.52c1.17,0,1.7-0.73,1.7-1.32
		c0-2.16-4.52-2.41-4.52-5.27c0-1.7,1.26-2.79,3.17-2.79c0.8,0,1.59,0.24,2.33,0.73V24.02z"/>
	<rect x="262.65" y="21.72" class="st2" width="1.5" height="10.45"/>
	<path class="st2" d="M282.04,31.45c-1.4,0.61-2.53,0.86-3.98,0.86c-3.2,0-5.56-2.24-5.56-5.3c0-3.08,2.42-5.42,5.61-5.42
		c1.23,0,2.08,0.2,3.72,0.89v1.52c-1.23-0.67-2.5-1.03-3.75-1.03c-2.27,0-4.03,1.73-4.03,4c0,2.33,1.75,3.97,4.23,3.97
		c0.81,0,1.55-0.18,2.27-0.41l0-3.49h1.5V31.45z"/>
	<polygon class="st2" points="298.88,21.72 298.88,29.81 291.8,21.72 290.6,21.72 290.6,32.17 292.01,32.17 292.01,24.12 299,32.17
		300.29,32.17 300.29,21.72 	"/>
</g>
</svg>
