<svg xmlns="http://www.w3.org/2000/svg" viewBox="0 0 237.134 147.223"><title>WDD safari</title><path d="M214.754,56.938c-.254-1.44-1.993-.268-2.5.144-.528.422-1.224.123-1.835.089-.528-.027-.734.336-1.255.288s-2.332,1.012-2.418.84c-1.091-.24-1.667.624-2.582.758-.562.676-1.482.545-1.951,1.228-.36.525-.477,1.046-1.2,1.063-.912.024-.926,1.022-1.595,1.392-.7.391-1.255.062-1.838.717a6.775,6.775,0,0,1-3.5,1.8c-.875.885-2.346.737-3.306,1.509a20.223,20.223,0,0,1-1.855,1.595,4.6,4.6,0,0,1-1.828,1.255c-.089,1.3-.192,1.015-1.231,1.632-.648.381-.453.744-1.217,1-1.022.34-.518.974-.964,1.715-.823,0-.7.971-1.159,1.338.079.727.46.449-.446,1.087-1.046.731-1.687,1.8-3.131,2.01-.617.089-.929.833-1.468.59a1.452,1.452,0,0,0-1.238-.134,2.426,2.426,0,0,0-1.67.7.807.807,0,0,0-.206.779.682.682,0,0,0-.676.415c-.408.854-2.857,1.056-2.15,2.349-.3.1-1.176.237-.665.665-.775.967-2.058,1.536-2.915,2.346-.7.658-.566,1.5-1.66,1.506a7.647,7.647,0,0,1-2.116.617,11.15,11.15,0,0,0-3.166.655,9.524,9.524,0,0,1-3.059.048,37.337,37.337,0,0,0-6.41.727c-2.476.394-4.959.8-7.449,1.008-1.327.113-4.345.353-5.278-.545-.466-.449-1.245-.024-1.876-.573-.7-.6-.521-.542-1.351-.247-.319.113-1.08-.278-1.279.2-.274.628-.734.456-1.5.418-.977-.045-2.682-1.207-3.43-.508-.6.552-2.483.127-3.388-.072-2.991.007-5.755-1.231-8.684-1.221-.316-.418-1.29-.408-1.907-.614-.792-.268-1.591.189-2.435-.038a17.437,17.437,0,0,0-6.088-.274c-.785.065-.905.549-1.667.552a5.955,5.955,0,0,0-1.667.422c-1.389-.024-3.234-.388-4.53.141-.679.278-2.531.021-2.751.844-.147.559-.446.185-.813.377-.586.83-1.1.655-2.082.755a10.25,10.25,0,0,0-4.843,1.485c-.576.329-1.729.35-2.1.929-.665,1.06-1.835.35-2.775.991A18.453,18.453,0,0,0,80.486,95.7c-1.163,1.169-2.788,1.777-3.766,3.142a7.7,7.7,0,0,1-2.665,2.346c-.408.25-2.054,2.435-1.825,2.672-.748,1.1-1.975,1.718-2.493,2.991a15.479,15.479,0,0,1-2.445,4c-.676.864-.868,1.879-1.519,2.733-.727.953-.12,1.56-.827,2.5-.765,1.025.219,2.291-.84,3.141a5.828,5.828,0,0,1-2.034,2.867c-1.008.971-2.075.593-3.292.984a5.141,5.141,0,0,1-2.991.432c-.669-.175-.957.391-1.512.586-.837-.041-1.674.007-2.5-.024a17.612,17.612,0,0,0-5.117.384c-.665.2-1.314.412-1.975.59a3.757,3.757,0,0,0-2.106.254,7.382,7.382,0,0,1-2.733.761,12.313,12.313,0,0,1-3.409,2.017c.374.984-1.818,1.276-2.5,1.674-1.471.847-2.733,2.209-4.29,2.881-1.231.528-1.461,1.591-2.785,1.725-1.125,1.132-3.2,1.931-4.582,2.864-2.438,1.65-4.664,3.841-7.247,5.179-1.1.569-1.876,2.438-3.073,2.679-1.094.71-2.792,1.773-1.571,3.145,1.324,1.492,3.025,1.547,4.877,2.13a17.088,17.088,0,0,0,5.021.926c1.094.031,1.972-.2,3.128-.264.844-.048.264.566,1.245-.034a3.957,3.957,0,0,1,1.6-.453,4.38,4.38,0,0,0,2.195-.737,4.086,4.086,0,0,1,1.879-.943c.631-.257.213-.748.981-.151.442.34.58.058,1.108.144.525-.919,1.06-.463,1.746-.758.484-.2,1.921.178,1.914-.837a3.684,3.684,0,0,0,4.071-1.708c.5-.792,2.826-3.57,3.759-3.574a2.889,2.889,0,0,1-1.245,2.425c-.182.178-.892,1.567-.141,1.094s-.123.772-.271.995c-.3.453-.532,2-1.324,2,.429,1.327,3-1.3,3.354-.977.7.638,1.41-1.19,1.9-.706.521-.069.779-.538,1.248-.676.641-.178.905.154,1.629-.23.881-.466,2.233-1.581,3.241-1.125.357.165,1.543-.624,1.794-.83.545-.442,1.447-.134,1.945-.48a15.976,15.976,0,0,1,2.222-1.2c.075.247.062.388.257.58.453-.456-.189-1.063,1.08-.755-.168.487-1.708,1.729-1.584,1.941.257.439.953-.189,1.341-.189-.151.422-.648.631-.995.837.508.508,2.778-.542,3.581-.847.888-.336,2.061-1.756,2.915-1.759-.292,1.228.422.182,1.711.525.751.2.7.847.209,1.554.051.23.257.319.261.5.4-.147.7-.95,1.231-.628a2.714,2.714,0,0,0,.768.535c-.038.566-.46,1-.521,1.557a.969.969,0,0,1,.027.864.285.285,0,0,1-.333-.165c-.343.343.58.566.041,1.372-.237.343-1.087.991-.2,1.128-.247.772-4.064,4.431-1.9,4.424-.113.432-1.077,1.269-.082,1.248-.069.59-.562.425-.243,1,.892-.336.463.113.833.662-.161.775-.761.034-.473,1.008.171.295.106.49-.185.58.007,1.358-1.605,2.97-2.322,4.006a9.824,9.824,0,0,1-1.314,1.807,13.245,13.245,0,0,0-1.183.871c-.113.7-1.1,1.605-1.584,2.209-.658.813-.158.281-.154.964.751-.261.2-.086,1,.075a6.771,6.771,0,0,1-1.224,2.346c-1.108,1.324.5.34.737.573-.11.552-1.334,1.019-1.1,1.5.175.35,1.032.12,1.44.254-.254.254-.161.453,0,.751.871-.285.182.758,1.087.494.34.268.048.621.758.83-.717,1.135.322.638,1.084.5-.377,1.588-.466,2.624-2.075,3.594.1.573.693.5-.058,1.025-.528.1-.689.4-.48.9-.017.576-.833.792-.12,1.248-.631,1.324-2.336,2.006-2.49,3.594-.223.384-2.1,2.243-.49,2.336-.2.566-1.039,1.077-1.5,1.42-.58.418.137.439-.316,1.012-1.286,1.632,2.078,1.639,2.078,2.483.923.892,1.564,1.142,2.01,2.078.343.724.041,1.8.511,2.661.6.1,1.032.957,1.756,1.331a9.785,9.785,0,0,0,1.975.717,10.219,10.219,0,0,0,4.952-.161,39.482,39.482,0,0,0,5.995-.49c2.185-.329,3.234-1.224,4.757-2.713.905-.881,1.557-1.094,1.077-2.5a1.832,1.832,0,0,0-.682-1.571c-.408-.4.027-1.2-.3-1.77a1.872,1.872,0,0,0-1.536-.809c-1.142-.11-1.382.5-1.77-.724a11.862,11.862,0,0,1-.329-3.2c-.412-1.818.573-3.55,1.485-5.086.343-.573,1.111-.95,1.5-1.591.446-.748.264-1.512,1.073-2,.953-1.276,1.362-2.922,2.267-4.184.374-.525.3-1.019.988-1.067.532-.031.487-.724.892-.655a5.316,5.316,0,0,0,1.581-1.951c.552.3.333,1.307,1.091.83-.027-.892-.2-1.444.737-1.276.634.106,2.277,1.077,2.346-.4.46.175.429.871,1,.446.364-.271.271-.909.247-1.283.3.106.532.388.833.5a2.056,2.056,0,0,0,.165-1.084c.254.082,1.266.614.947-.292-.206-.573.439-1.132.463-1.711a1.318,1.318,0,0,0,1.087-.093c0-.813.281-.59.748-1.166.13-.062.94-.171,1.049-.058.415.418,1.612-2.387,1.735-2.929.154-.682,1.036-.662,1.121-1.526.9.271.672-.816,1.159-1.423s1.173-.388,1.5-1.338c.12-.175-.051-2.1.809-1.478.549.391.713-.1.686-.693,1.169.316,1.488-1.6,2.576-2.01,1.06-.007,2.5-2.006,2.493-3.1.268.168.271.556.586.665.816-.614.343-.758.974-1.262.816-.648,1.108-1.869,2.02-2.332.525.875,1.437-.919,1.523-.113.041.4.545.789.741,1.193.257.538,1.094-.268,1.242-.508.442,0,.418.95.919.165.25.165.285.7.5.912a1.607,1.607,0,0,0,.247-1.08c.813.216.816-.439,1.084.744-.521.093-.525.47-.075.751-.151-.23.751-.007.8-.007.511.051.388-.628.364-.916.487-.1,1.3-1.406,1.66-1.307.641.189-.161,2.253.926.717.449.295.175,1.506.425,2,.658,0,.473-1.42,1.08-1.423.014.905-.5,2.493.178,3.166a6.013,6.013,0,0,1,.83-1.252c.6-.048-.346.58.875.051a13.2,13.2,0,0,1,1.629-.559c.11.11-.069,1.7.916.079a1.047,1.047,0,0,1,.34.583c.333-.117.271-.418.576-.418.069.508.322.7.751.58.1.542.552.542.837.082a2.44,2.44,0,0,1,.34.83c.377-.158.58-.062.6.292.333.5.868-.134,1.07-.463,1.091.521.542,1.121,1.259,1.831a14.741,14.741,0,0,1,.744-1.588c.1-.113.274.141.583-.171.11.285.2.562.5.669.178-.333.23-.827.58-1,.254.545.027,1.667.761,1.663a3.673,3.673,0,0,0,.171,1.5c.655-.233,1.067-1.338,1.742-1.338.048.47-.086,1.825.425,2,.216-.326,1.08-1.324,1.08-1.67a2.463,2.463,0,0,1,.586.912,1.862,1.862,0,0,1,1.169-.168c0,.868.5.844.5,1.416.61-.2.436-1.06.5-1.588,1.389.48.82,1.811,1.763,2.744.713-1.286.051-1.375,1.248-.751.1.051,1.293.271,1.259.295.408-.254.394.449.909.446.089.59.185,2.185.847,2.414,1.115-1.067,1.111.353,1.838,1.077a5.91,5.91,0,0,0,1.245-2.171c.4,0,.61.73.837,1.08a6.494,6.494,0,0,0,.755-.254,2.957,2.957,0,0,0,.919,2c.357-.357.168-.538.165-1.084.525.175,1.008-.024,1.008.514,0,1.08.566.415.844.724.466.5,1.132,1.66.665,2.339.137,1.245.761.161,1.252.161,0,.693-.219,1.358-.237,2.051,0,.446.391,1.043.329,1.451a7.52,7.52,0,0,0,0,1.248.625.625,0,0,0,.418-.333c.357.192.34.679.34.995-.628-.23-.755.34-.086.34-.086.789-.312,1.564-.336,2.363-.021.48.333.875.319,1.375a1.24,1.24,0,0,0-.175,1.036c.189.772.5-.192.58.8a9.841,9.841,0,0,1,.048,1.145c-.014.247-.171,1.29.264.857a14.335,14.335,0,0,1,.964,1.989c.069.511.213,1.142-.288,1.509.045.271.336.525.336.751.418-.158.281-.755.833-.755-.021,1.128-.943,2.7-.319,3.666.658-.072.912-.706,1.475-.967.045-.021-.185,1.711.779,1.708-.1,1.139-.6,1.125.257,2.085.449-.075.82-.5,1.252-.5-.065.912.021,1.5,1.173,1.5-.117.833.226.415.669.415.192,1.08.147.693,1.169.58.024.682.394,1.4,1.252.823.5,0,.2.761.422,1.169a2.319,2.319,0,0,0,.919-.669,3.231,3.231,0,0,1,.5,1.66c-.113.628-.827,1.135-.175,1.591s.243.936,1.269,1.245c-.274,1.451,1.879.706,2.456,1.691.542.926,1.53,1.128,2.041,1.852a4.649,4.649,0,0,0,1.622,1.224c3.255,1.8,6.352,1.746,10,1.615,2.1-.079,4.2-.127,6.29-.209,1.152-.045,2.219.209,3.275-.388a14.419,14.419,0,0,1,2.4-1.121c2.181-.751,1.043-3.5.1-4.873-.484-.7.123-1.31-.9-1.31.206-.542-1.6-2.14-2.154-2.291-1.07-.3-1.739.8-2.545-.319-.436-.59-1.056-.957-1.492-1.533-1.293-1.718-2.291-2.98-1.914-5.268a37.971,37.971,0,0,0,.147-5.408,20.482,20.482,0,0,0,.268-2.764,7.65,7.65,0,0,1-.062-2.3c.391-1.8-.2-3.776.072-5.645.192-1.3-.062-2.857.4-4.109a10.433,10.433,0,0,0,1.115-2.967,2.247,2.247,0,0,1,.449-1.536c.844,1.461.758-.473.755-1.173,1.32.449.909-.669.905-1.838a3.254,3.254,0,0,1,.586.583c.257-.49.916-1.348.912-1.838.381.055.984.806.929-.038-.031-.518-.432-1.094.243-1.389,1.276-.559.11-1,.813-1.962.346-.47.305-1.1,1.115-.943,1.533.312.144-1.485,1.632-2.181.415-.2.72.154.936-.446-.13-.538.058-.727.566-.562a1.174,1.174,0,0,0,.576-1c.566.185,1,.809,1.169-.422.412.082.775,0,.861-.477.137-.806.789-.271.634-1.193s.761-.761.827-1.67c.631.243.243.316.919.079.075.171.418.593.418.748.693-.247.34.086,1,.082.36-.364.288-.463.748-.755a1.967,1.967,0,0,0-.254-1.248c.525-.147.7-.408.508-.772-.161-.25-.192-.388.154-.566.13.322.556.861.295,1.169-.223.069-.264.185-.127.346.274.47.528-.048.5-.35.7.031.8-.823.665-1.334-.165-.658.25-.535.247-1.5a14.5,14.5,0,0,0,.648-4.921c.559.168,1.886.981,1.444-.264-.2-.559.233-.521.134-.991a14.144,14.144,0,0,1-.343-3.834c1.31.261,0-.823.322-1.314.583-.885-.247-.662-.185-1.667.021-.367.47-1.156.2-1.512a.924.924,0,0,1-.271-.84c.01-.573.576-1.125.576-1.584,1.166.532.552-.984,1.259-1.955.319-.439-.727-2.133.23-2.133,0,.645-.051.532.333.916a.864.864,0,0,0,.25-1.169c1.849.645.185-1.523.741-2.085-.034-.518.268-1.451.161-1.835a7.705,7.705,0,0,0-.923-1.831c.014-.189,1.238-2.229,1.128-2.294.655.36.535-.336.408-.755a6.287,6.287,0,0,1-.226-2.706c1.787,1.012.2-1.4.165-2.082.727-.062,2.329-1.207,1.242-1.924.058-.274.556-.59.25-.9a.339.339,0,0,1-.165-.436c.463-.648.192-.857,1.423-.868.5,0,1.938-.079,2.281.271s1.183-.1,1.687-.034a14.472,14.472,0,0,0,2.86.1c1,.243,1.753.785,2.689-.017.851-.727,1.324-.552,2.3-.878,1.763-.586,2.507-2.8,3.035-4.52.35-1.152,1.279-1.945,1.626-3.117A28.954,28.954,0,0,1,240.14,86.6c.566-.785,1.492-1.152,1.958-2.034a12.9,12.9,0,0,0,1.029-2.8c.48-1.773,1.341-4.561-1.152-5.158-1.152-.274-1.66-.868-2.7-1.18-.583-.391-.583-.9-1.4-.905a1.681,1.681,0,0,1-1.142-.381c-1.121-.679-4-.374-4.266-2.246-.213-1.451-2.864-1.06-2.133-3.214.535-1.571-.689-2.421-.693-3.718-.4-1.224-2.023-4.671-3.7-4.479-1.657.189-3.255-2.706-4.585-2.2a1.488,1.488,0,0,1-1.252-.377c-.7-.758-.779-.072-1.5-.494-.621-.36-.573-.84-1.509-.257-.72.442-.6-.2-1.331-.4a2.911,2.911,0,0,0-1,.168" transform="translate(-8.25 -54.527)" fill="none" stroke="#010202" stroke-linecap="round" stroke-linejoin="round" stroke-width="3.43"/></svg>