<svg version="1.1" id="Layer_1" xmlns="http://www.w3.org/2000/svg" xmlns:xlink="http://www.w3.org/1999/xlink" x="0px" y="0px" width="250px" height="250px" viewBox="0 0 250 250" enable-background="new 0 0 250 250" xml:space="preserve">
<g>
	<defs>
		<rect id="SVGID_1_" x="8.25" y="54.52811" width="237.13539" height="147.22189"/>
	</defs>
	<clipPath id="SVGID_2_">
		<use xlink:href="#SVGID_1_"  overflow="visible"/>
	</clipPath>

		<path clip-path="url(#SVGID_2_)" fill="none" stroke="#010202" stroke-width="3.42959" stroke-linecap="round" stroke-linejoin="round" d="
		M214.75404,56.93841c-0.2538-1.44042-1.9926-0.26751-2.49675,0.14405c-0.52817,0.42183-1.22437,0.12346-1.83482,0.08916
		c-0.52817-0.02743-0.73393,0.3361-1.25523,0.28809c-0.53502-0.05144-2.33212,1.01173-2.41786,0.84026
		c-1.09061-0.24007-1.66678,0.62418-2.58247,0.75793c-0.56247,0.67564-1.48158,0.54531-1.95145,1.2278
		c-0.36009,0.52473-0.4767,1.04602-1.19691,1.06318c-0.91226,0.02401-0.92599,1.02202-1.59476,1.39241
		c-0.69963,0.39098-1.25523,0.06174-1.83826,0.71678c-0.72023,0.81968-2.43501,1.68393-3.49818,1.80397
		c-0.87454,0.88483-2.34584,0.73737-3.30612,1.50902c-0.46986,0.37383-1.76967,1.67707-1.85541,1.59476
		c-0.42528,0.66191-1.18321,0.8814-1.82797,1.25523c-0.08916,1.29982-0.19206,1.01516-1.23122,1.63248
		c-0.64821,0.38068-0.45271,0.74422-1.2175,0.99801c-1.02202,0.33954-0.51787,0.97401-0.96373,1.71479
		c-0.82309,0.00344-0.69963,0.97058-1.15919,1.33755c0.07889,0.72707,0.45956,0.44926-0.44585,1.08717
		c-1.04602,0.73051-1.68735,1.79711-3.13121,2.00975c-0.61732,0.08916-0.92943,0.83339-1.46786,0.58988
		c-0.53502-0.24007-0.56589-0.25378-1.23808-0.13375c-0.59331,0.10288-1.28609,0.1749-1.6702,0.69621
		c-0.20921,0.22292-0.27438,0.48357-0.20578,0.77852c-0.32925,0.00343-0.55217,0.14062-0.67563,0.41498
		c-0.40813,0.85397-2.85684,1.0563-2.15036,2.34927c-0.29837,0.10288-1.17635,0.23664-0.66534,0.66534
		c-0.77507,0.96714-2.05774,1.53645-2.91515,2.34583c-0.69963,0.65849-0.56589,1.50216-1.65991,1.50558
		c-0.7888,0.24007-1.27238,0.58304-2.11606,0.61732c-1.17635,0.05489-2.04747,0.29151-3.16551,0.65506
		c-0.95343,0.30866-2.07146,0.0686-3.05919,0.04801c-2.10919-0.04115-4.30757,0.3944-6.4099,0.72707
		c-2.47617,0.39441-4.95918,0.7991-7.44907,1.00831c-1.32726,0.11317-4.34529,0.35324-5.27814-0.5453
		c-0.46642-0.44928-1.24495-0.02401-1.87598-0.57274c-0.69621-0.60019-0.5213-0.54188-1.35126-0.24694
		c-0.31895,0.11318-1.08032-0.27779-1.27925,0.1955c-0.27435,0.62761-0.73392,0.45613-1.49873,0.4184
		c-0.97743-0.04459-2.68192-1.20722-3.42958-0.50758c-0.59674,0.55216-2.48302,0.12689-3.38843-0.07202
		c-2.99059,0.00686-5.75484-1.23122-8.68371-1.22094c-0.31553-0.4184-1.28953-0.40812-1.90685-0.61389
		c-0.79224-0.26752-1.59133,0.18863-2.43501-0.03773c-1.96516-0.52815-3.98861-0.45613-6.08752-0.27436
		c-0.78538,0.06516-0.90541,0.54874-1.66678,0.55216c-0.6825,0-1.02545,0.26065-1.66679,0.42183
		c-1.38898-0.02401-3.2341-0.38754-4.53048,0.14062c-0.67906,0.27779-2.53104,0.02058-2.75053,0.84368
		c-0.14747,0.55902-0.44584,0.1852-0.81281,0.37726c-0.58646,0.82996-1.10432,0.65504-2.08176,0.7545
		c-2.05089,0.21606-3.07633,0.46986-4.84258,1.48502c-0.57616,0.32924-1.72851,0.34981-2.10233,0.92941
		c-0.66534,1.05975-1.83483,0.34982-2.77453,0.99115c-1.10434,0.74765-2.21552,1.05631-3.17238,2.01317
		c-1.16262,1.16949-2.78825,1.77653-3.76569,3.1415c-0.83339,1.16264-1.48501,1.61534-2.66479,2.34584
		c-0.40812,0.25036-2.05431,2.43501-1.82453,2.67165c-0.74766,1.1009-1.97544,1.71822-2.49331,2.9906
		c-0.66534,1.61191-1.37527,2.63735-2.4453,3.99889c-0.67562,0.86427-0.86768,1.87942-1.51929,2.73339
		c-0.72708,0.95342-0.12003,1.56046-0.82654,2.50017c-0.76479,1.02544,0.21949,2.29096-0.84024,3.14149
		c-0.26408,1.22094-1.14548,2.0166-2.03376,2.86713c-1.00829,0.97058-2.0749,0.59332-3.2924,0.9843
		c-1.01172,0.32923-1.94801,0.70992-2.9906,0.43212c-0.66877-0.17491-0.95685,0.39098-1.51244,0.58646
		c-0.83681-0.04115-1.67363,0.00686-2.50017-0.02401c-1.5639-0.05487-3.62164-0.0583-5.11695,0.38412
		c-0.66534,0.19549-1.31353,0.41154-1.97544,0.58989c-0.72364,0.00343-1.45757-0.15091-2.10576,0.25378
		c-0.56589,0.35325-2.06804,0.76137-2.73338,0.76137c-1.0083,1.01517-2.16407,1.35812-3.40901,2.01661
		c0.37383,0.98428-1.81768,1.2758-2.50017,1.67363c-1.47129,0.84711-2.73338,2.20866-4.29041,2.88086
		c-1.23123,0.52815-1.46101,1.59132-2.78483,1.72508c-1.1249,1.13176-3.19981,1.93085-4.58194,2.86371
		c-2.43843,1.64963-4.66423,3.84113-7.24671,5.17867c-1.09747,0.56932-1.87599,2.43845-3.07291,2.67851
		c-1.09404,0.70993-2.79168,1.7731-1.57075,3.14493c1.32383,1.49188,3.0249,1.54674,4.87688,2.12978
		c1.73537,0.54874,3.1998,0.88141,5.02092,0.92599c1.09404,0.03087,1.97202-0.1955,3.12778-0.26408
		c0.84369-0.04802,0.26408,0.56587,1.24494-0.0343c0.48015-0.29837,1.0426-0.37724,1.59819-0.4527
		c0.80938-0.11317,1.53646-0.23665,2.19495-0.73737c0.50072-0.37726,1.30666-0.93971,1.87942-0.94313
		c0.63104-0.25722,0.21262-0.74765,0.98086-0.15091c0.44241,0.33954,0.5796,0.0583,1.10775,0.14404
		c0.52472-0.91913,1.05975-0.463,1.74567-0.75793c0.48357-0.20235,1.92056,0.17834,1.91371-0.83682
		c1.44042,0.48015,3.18266-0.29837,4.07092-1.70793c0.50415-0.79224,2.82597-3.57021,3.75883-3.57362
		c0.01714,1.17978-0.45271,1.66335-1.24495,2.42471c-0.18176,0.17833-0.89169,1.56732-0.14061,1.09404
		c0.75451-0.48015-0.12346,0.77165-0.27094,0.99458c-0.29837,0.4527-0.53158,1.99602-1.32381,1.99945
		c0.4287,1.32724,3.00431-1.30325,3.35413-0.97743c0.70307,0.63789,1.40957-1.19008,1.89656-0.7065
		c0.5213-0.06859,0.77852-0.53845,1.24836-0.67563c0.64133-0.17834,0.90541,0.15433,1.62906-0.22978
		c0.8814-0.46643,2.23267-1.58104,3.24096-1.12491c0.35668,0.16463,1.54332-0.62419,1.79367-0.82996
		c0.54531-0.44243,1.44729-0.13376,1.94458-0.48015c0.69278-0.48357,1.4713-0.83682,2.22237-1.20035
		c0.07545,0.24692,0.06174,0.38754,0.25722,0.57959c0.45271-0.45613-0.18863-1.06317,1.08031-0.7545
		c-0.16805,0.487-1.70792,1.7285-1.58446,1.94115c0.25722,0.43898,0.95342-0.18863,1.34097-0.18863
		c-0.1509,0.42183-0.64819,0.63104-0.99458,0.83682c0.50759,0.50757,2.77797-0.54189,3.5805-0.84711
		c0.88826-0.33611,2.06117-1.75595,2.91514-1.75938c-0.29151,1.22778,0.42184,0.18176,1.71136,0.52472
		c0.75108,0.1955,0.70306,0.84711,0.20921,1.5536c0.05145,0.22978,0.25721,0.31895,0.26065,0.4973
		c0.40125-0.14748,0.69963-0.95,1.23122-0.62762c0.22636,0.22293,0.48014,0.40126,0.76823,0.53502
		c-0.03773,0.56589-0.45957,1.00487-0.52129,1.55704c0.14404,0.27437,0.15432,0.56931,0.02743,0.86426
		c-0.14404,0.03085-0.25379-0.024-0.33266-0.16463c-0.34297,0.34296,0.5796,0.56589,0.04115,1.37184
		c-0.23664,0.34296-1.08718,0.99115-0.19892,1.12833c-0.24693,0.77167-4.06405,4.43103-1.90342,4.42416
		c-0.11317,0.43214-1.07689,1.26895-0.08231,1.24838c-0.0686,0.58989-0.56245,0.42526-0.2435,1.00487
		c0.89169-0.33611,0.46299,0.11317,0.83339,0.66191c-0.16119,0.77509-0.76137,0.03429-0.47328,1.0083
		c0.17148,0.29494,0.10631,0.49043-0.1852,0.57961c0.00686,1.35811-1.60504,2.97002-2.32182,4.00575
		c-0.48015,0.68935-0.70307,1.22778-1.31354,1.80739c-0.22635,0.2195-1.03916,0.64476-1.1832,0.87111
		c-0.11318,0.69965-1.10091,1.60506-1.58447,2.20866c-0.65847,0.81281-0.15775,0.28122-0.15433,0.96371
		c0.75107-0.26065,0.19548-0.08574,0.99801,0.07545c-0.21264,0.78537-0.69965,1.71478-1.22437,2.34583
		c-1.10775,1.32382,0.49729,0.33954,0.73736,0.57274c-0.10974,0.55217-1.33411,1.0186-1.10089,1.49873
		c0.17491,0.34982,1.0323,0.12004,1.44042,0.2538c-0.25378,0.25378-0.16118,0.4527,0,0.75107
		c0.87112-0.28465,0.18177,0.75793,1.08718,0.49387c0.33952,0.2675,0.04801,0.62076,0.75794,0.82996
		c-0.71678,1.13521,0.32238,0.63791,1.08374,0.4973c-0.37724,1.58791-0.46642,2.62363-2.0749,3.59421
		c0.09603,0.57274,0.69278,0.50415-0.0583,1.02544c-0.52816,0.10289-0.68935,0.40469-0.48014,0.89513
		c-0.01715,0.57617-0.83339,0.79224-0.12004,1.24837c-0.63105,1.32382-2.33555,2.00632-2.48988,3.59421
		c-0.22292,0.38412-2.09548,2.24295-0.49044,2.33556c-0.19548,0.56589-1.03916,1.07689-1.49529,1.41985
		c-0.57961,0.41841,0.13718,0.439-0.31553,1.01173c-1.2861,1.63248,2.07834,1.63934,2.07834,2.48302
		c0.92255,0.89169,1.56388,1.14204,2.00973,2.07832c0.34296,0.72365,0.04116,1.7971,0.51102,2.66136
		c0.6036,0.09946,1.0323,0.95685,1.75594,1.33069c0.62075,0.31894,1.29982,0.53844,1.97544,0.71678
		c1.71136,0.439,3.25811,0.21263,4.95232-0.16119c2.0509-0.00343,3.96461-0.18176,5.99493-0.49043
		c2.18465-0.32924,3.2341-1.22437,4.75684-2.7128c0.90541-0.88141,1.55702-1.09404,1.07688-2.5036
		c-0.07545-0.82654-0.10289-1.00487-0.68249-1.57076c-0.40812-0.39783,0.02744-1.20378-0.30181-1.76965
		c-0.31209-0.55219-0.94656-0.75452-1.53645-0.80939c-1.14205-0.10976-1.38213,0.49728-1.76966-0.72365
		c-0.33267-1.04604-0.28466-2.10234-0.32925-3.19638c-0.41154-1.81767,0.57274-3.54962,1.48501-5.08607
		c0.34296-0.57274,1.11119-0.94998,1.50216-1.59132c0.44585-0.74765,0.26408-1.51245,1.07346-2.00288
		c0.95343-1.2758,1.36155-2.92201,2.26697-4.1841c0.37382-0.52472,0.29837-1.01859,0.98772-1.0666
		c0.53159-0.03085,0.487-0.72363,0.89169-0.65504c0.24007,0.04457,1.58448-1.65993,1.58105-1.95143
		c0.55216,0.29837,0.33267,1.30666,1.09061,0.82994c-0.02745-0.89168-0.19892-1.44385,0.73737-1.27579
		c0.63446,0.10631,2.27724,1.07689,2.34583-0.40128c0.45956,0.17491,0.4287,0.87112,1.00144,0.44586
		c0.36353-0.27095,0.27094-0.90884,0.24693-1.28267c0.29838,0.10631,0.53159,0.38754,0.83339,0.49728
		c0.15434-0.34296,0.20578-0.7065,0.16462-1.08376c0.2538,0.08232,1.26553,0.61391,0.94657-0.2915
		c-0.20578-0.57274,0.439-1.13176,0.46301-1.71136c0.35667,0.12689,0.74078,0.09602,1.08717-0.09261
		c-0.00343-0.81281,0.28123-0.58989,0.74766-1.16605c0.13032-0.06175,0.9397-0.17149,1.04945-0.0583
		c0.41498,0.4184,1.6119-2.38701,1.73537-2.92888c0.15433-0.6825,1.03573-0.66191,1.12148-1.52617
		c0.90197,0.27094,0.6722-0.81624,1.15919-1.42328c0.48358-0.59674,1.17293-0.38754,1.50216-1.33754
		c0.12003-0.17491-0.05144-2.09547,0.80939-1.47815c0.54873,0.39098,0.71336-0.10289,0.68592-0.69278
		c1.16949,0.31552,1.48844-1.59819,2.57562-2.00974c1.05974-0.00685,2.49673-2.0063,2.49331-3.09691
		c0.2675,0.16805,0.27094,0.55559,0.58646,0.66533c0.81625-0.61389,0.34296-0.75793,0.97401-1.26208
		c0.81624-0.64819,1.10775-1.86913,2.02003-2.33212c0.52473,0.87454,1.43699-0.91913,1.52273-0.11317
		c0.04116,0.40469,0.54531,0.7888,0.7408,1.1935c0.25722,0.53845,1.09404-0.2675,1.24151-0.50757
		c0.44241-0.00343,0.41841,0.95,0.91913,0.16461c0.25036,0.16461,0.28465,0.69621,0.50415,0.91226
		c0.20921-0.32581,0.29151-0.68591,0.24693-1.08031c0.81281,0.21606,0.81625-0.439,1.08376,0.74422
		c-0.5213,0.09261-0.52473,0.46985-0.07545,0.75108c-0.15091-0.22978,0.75108-0.00687,0.79566-0.00687
		c0.51102,0.05145,0.38754-0.62761,0.36353-0.9157c0.48701-0.10289,1.30325-1.40613,1.65993-1.30667
		c0.64133,0.18863-0.16119,2.25323,0.92599,0.71678c0.44928,0.29494,0.1749,1.50558,0.42527,1.99945
		c0.65847-0.00343,0.47328-1.41985,1.08031-1.42328c0.01373,0.90541-0.50414,2.4933,0.17834,3.16551
		c0.25378-0.38754,0.47329-0.93628,0.82995-1.2518c0.59676-0.04802-0.34638,0.57959,0.87455,0.05144
		c0.74079-0.32581,0.98773-0.34639,1.62907-0.55902c0.10973,0.10974-0.0686,1.70108,0.91569,0.07887
		c0.13376,0.08232,0.33611,0.42871,0.33952,0.58304c0.33267-0.11661,0.27095-0.41841,0.57619-0.41841
		c0.06857,0.50758,0.32237,0.69965,0.75107,0.57961c0.10289,0.54187,0.55217,0.54187,0.83682,0.08231
		c0.16805,0.25722,0.27437,0.53159,0.33952,0.82996c0.37726-0.15776,0.57961-0.06172,0.59676,0.29152
		c0.33266,0.50415,0.86769-0.13374,1.07002-0.463c1.09061,0.5213,0.54189,1.12148,1.25867,1.83141
		c0.25722-0.51102,0.41498-1.08719,0.74423-1.58791c0.09946-0.11317,0.27435,0.14061,0.58302-0.17148
		c0.10974,0.28465,0.19891,0.56245,0.50414,0.66878c0.17834-0.33267,0.2298-0.82654,0.57961-1.00145
		c0.25378,0.54532,0.02745,1.66678,0.76137,1.66336c0.05145,0.50415-0.08574,1.0323,0.17149,1.49873
		c0.65504-0.23322,1.06659-1.33755,1.74222-1.33755c0.04802,0.46986-0.08574,1.82454,0.42528,1.99603
		c0.21606-0.32582,1.08031-1.32382,1.08031-1.67021c0.14748,0.08574,0.58647,0.75793,0.58647,0.91226
		c0.57274-0.20235,0.4287-0.19891,1.16949-0.16805c0.00342,0.86769,0.50414,0.84367,0.50414,1.41641
		c0.61047-0.20233,0.43556-1.05974,0.4973-1.58789c1.38898,0.48015,0.81966,1.81082,1.7628,2.74367
		c0.71336-1.28609,0.05144-1.37526,1.24837-0.75108c0.09602,0.05145,1.29297,0.27095,1.25867,0.29495
		c0.40811-0.2538,0.39441,0.44926,0.90883,0.44585c0.08917,0.58989,0.18521,2.18465,0.84712,2.41443
		c1.11461-1.0666,1.11118,0.35324,1.83826,1.07689c0.4767-0.7065,1.08376-1.29639,1.24493-2.17093
		c0.40126,0,0.61047,0.7305,0.83682,1.08032c0.25722-0.06859,0.50758-0.15433,0.7545-0.2538
		c0.02402,0.77167,0.38411,1.46443,0.91914,1.99603c0.35667-0.35669,0.16805-0.53845,0.16461-1.08376
		c0.52473,0.17491,1.0083-0.024,1.0083,0.51443c-0.00343,1.08032,0.56589,0.41498,0.84367,0.72365
		c0.46643,0.50415,1.13177,1.65991,0.66534,2.33897c0.13718,1.24495,0.76137,0.16119,1.2518,0.16119
		c0,0.69278-0.2195,1.35812-0.23665,2.05089c-0.00342,0.44585,0.39098,1.0426,0.32925,1.45071
		c-0.0686,0.50073,0.00342,0.85741,0.00342,1.24837c0.19206-0.05144,0.33267-0.16118,0.41841-0.33267
		c0.35667,0.19208,0.33954,0.67908,0.33954,0.99458c-0.62762-0.22977-0.75452,0.33954-0.08575,0.33954
		c-0.08572,0.7888-0.31209,1.56389-0.33609,2.36299c-0.02058,0.48013,0.33267,0.87453,0.31894,1.37526
		c-0.21263,0.32581-0.27094,0.66878-0.1749,1.03574c0.18863,0.77165,0.50414-0.19206,0.57959,0.80252
		c0.03773,0.38412,0.05489,0.76137,0.04802,1.14549c-0.01372,0.24692-0.17148,1.28952,0.26407,0.85739
		c0.16806,0.12004,0.95343,1.93428,0.96373,1.98915c0.06859,0.51102,0.21263,1.14206-0.28809,1.50903
		c0.04459,0.27094,0.33609,0.52472,0.33609,0.75107c0.41841-0.15775,0.28123-0.75452,0.83339-0.75452
		c-0.02057,1.12834-0.94313,2.69566-0.31895,3.66623c0.65849-0.07202,0.91228-0.70648,1.47473-0.96713
		c0.04459-0.02058-0.1852,1.71136,0.77852,1.70795c-0.10289,1.13861-0.60361,1.12489,0.25722,2.08517
		c0.44928-0.07545,0.81967-0.50072,1.25179-0.50415c-0.06514,0.91226,0.02058,1.49873,1.17293,1.49873
		c-0.11661,0.83339,0.22635,0.41498,0.66878,0.41498c0.19205,1.08032,0.14746,0.69278,1.16948,0.57961
		c0.02402,0.68248,0.39441,1.40269,1.2518,0.82309c0.50417,0,0.20235,0.76137,0.42184,1.16949
		c0.36353-0.14748,0.66876-0.37039,0.91913-0.66878c0.20576,0.48701,0.60704,1.10091,0.50415,1.65993
		c-0.11317,0.62761-0.82654,1.13521-0.17491,1.59134c0.64133,0.44928,0.2435,0.93626,1.26895,1.24493
		c-0.27437,1.45071,1.87941,0.7065,2.45558,1.69078c0.54189,0.92599,1.52959,1.12833,2.0406,1.85199
		c0.38412,0.5453,1.04945,0.91226,1.62219,1.22435c3.25467,1.79712,6.35159,1.74565,10.00069,1.61534
		c2.09891-0.07887,4.19781-0.12689,6.28986-0.20921c1.15234-0.04459,2.21895,0.20921,3.27525-0.38753
		c0.81969-0.45615,1.51245-0.81282,2.40071-1.12148c2.18123-0.7511,1.0426-3.49818,0.09946-4.87346
		c-0.48357-0.6962,0.12346-1.3101-0.90198-1.3101c0.20578-0.54187-1.59819-2.14006-2.15378-2.29095
		c-1.07004-0.29839-1.7388,0.80252-2.54475-0.31895c-0.43556-0.58989-1.0563-0.95686-1.49188-1.53302
		c-1.29295-1.71823-2.29095-2.98032-1.9137-5.26785c0.30865-1.85197,0.09602-3.54962,0.14746-5.40846
		c0.02744-0.93971,0.36697-1.83139,0.2675-2.76424c-0.08229-0.72708-0.21263-1.58447-0.06172-2.30469
		c0.39098-1.80397-0.19548-3.77597,0.07202-5.6451c0.19206-1.30325-0.06174-2.85686,0.40126-4.10866
		c0.37726-1.01172,1.04604-1.85883,1.11461-2.96658c0.04117-0.54874,0.03773-1.12148,0.44928-1.53645
		c0.84369,1.461,0.75795-0.4733,0.75452-1.17293c1.32039,0.44928,0.90884-0.66876,0.90541-1.83826
		c0.21948,0.12004,0.41154,0.40813,0.58646,0.58302c0.25722-0.49042,0.9157-1.34782,0.91228-1.83826
		c0.38068,0.05487,0.98428,0.80595,0.92941-0.03772c-0.03087-0.51787-0.43213-1.09404,0.2435-1.38898
		c1.27582-0.55902,0.10976-1.00145,0.81281-1.96173c0.34641-0.46985,0.30524-1.10432,1.11462-0.94313
		c1.53302,0.31209,0.14404-1.48502,1.63249-2.18123c0.41498-0.19548,0.7202,0.15434,0.93626-0.44585
		c-0.13031-0.53844,0.0583-0.72707,0.56589-0.56245c0.34296-0.12346,0.57617-0.6619,0.57617-1.00143
		c0.56589,0.1852,0.99802,0.80939,1.16949-0.42183c0.41154,0.08231,0.77509-0.00343,0.86082-0.47672
		c0.13718-0.80595,0.7888-0.27094,0.63448-1.1935c-0.15434-0.91228,0.76137-0.76138,0.82652-1.67021
		c0.63104,0.2435,0.2435,0.31552,0.91913,0.07889c0.07545,0.17146,0.41841,0.59331,0.41841,0.74763
		c0.69278-0.24692,0.33952,0.08575,1.00487,0.08231c0.36011-0.36353,0.28809-0.46298,0.74765-0.7545
		c-0.01372-0.50072,0.0343-0.81624-0.25378-1.24837c0.52473-0.14748,0.6962-0.40813,0.50758-0.77167
		c-0.16119-0.25035-0.19206-0.38753,0.15431-0.56587c0.13034,0.32239,0.5556,0.86082,0.29495,1.16949
		c-0.22293,0.06859-0.26407,0.1852-0.12689,0.34637c0.27437,0.46986,0.52817-0.048,0.50072-0.34981
		c0.69621,0.03087,0.79567-0.8231,0.66534-1.33411c-0.16463-0.65849,0.25037-0.53502,0.24693-1.50217
		c0.5453-1.57761,0.65504-3.16551,0.64819-4.92146c0.55901,0.16806,1.88626,0.98087,1.44386-0.26407
		c-0.19893-0.55902,0.2332-0.5213,0.13374-0.99115c-0.25723-1.24495-0.43556-2.5619-0.34296-3.83428
		c1.3101,0.26065,0-0.8231,0.32237-1.31353c0.58304-0.88483-0.24692-0.66191-0.18518-1.66678
		c0.02055-0.36697,0.46983-1.15577,0.20233-1.51245c-0.22978-0.22292-0.31894-0.50415-0.27094-0.84025
		c0.01028-0.57274,0.57617-1.1249,0.57617-1.58447c1.16606,0.53159,0.55215-0.98429,1.25867-1.95486
		c0.31894-0.43899-0.72708-2.1332,0.22977-2.1332c0,0.64477-0.05144,0.53159,0.33267,0.9157
		c0.38411-0.26751,0.46643-0.65505,0.25037-1.16949c1.84854,0.64477,0.1852-1.52273,0.74078-2.08519
		c-0.03429-0.51786,0.26752-1.45071,0.16119-1.83482c-0.08231-0.29494-0.69965-1.66335-0.92256-1.8314
		c0.01373-0.18863,1.23808-2.22923,1.12833-2.2944c0.65506,0.36011,0.53503-0.3361,0.40814-0.75451
		c-0.27095-0.89169-0.34982-1.78339-0.22636-2.70595c1.78682,1.01173,0.19548-1.40269,0.16463-2.08176
		c0.72707-0.06174,2.32869-1.20721,1.2415-1.924c0.05832-0.27437,0.55559-0.58989,0.25037-0.89513
		c-0.17148-0.10289-0.22635-0.25036-0.16461-0.43556c0.46298-0.64819,0.19205-0.85739,1.42326-0.86768
		c0.50417-0.00343,1.93773-0.07887,2.28069,0.27094c0.33609,0.34296,1.18321-0.09946,1.68735-0.0343
		c0.99117,0.13719,1.85199,0.15091,2.86028,0.09946c1.00145,0.2435,1.75253,0.78538,2.68878-0.01715
		c0.85056-0.72707,1.32384-0.55216,2.30128-0.87797c1.7628-0.58646,2.507-2.79512,3.03516-4.5202
		c0.34984-1.15234,1.27925-1.94457,1.62563-3.11749c0.55904-1.08719,1.20038-2.43845,1.90685-3.42616
		c0.56589-0.78538,1.4919-1.15234,1.95833-2.03374c0.46982-0.87455,0.77507-1.8417,1.02885-2.79513
		c0.48013-1.77309,1.34096-4.56134-1.15234-5.15809c-1.15233-0.27438-1.65991-0.86769-2.70251-1.17979
		c-0.58302-0.39097-0.58302-0.90199-1.40269-0.90541c-0.4287,0.01373-0.80937-0.11318-1.14204-0.38068
		c-1.12149-0.67905-3.99548-0.37383-4.26642-2.24638c-0.21263-1.45071-2.86371-1.05975-2.13321-3.21352
		c0.53503-1.57075-0.68933-2.4213-0.69276-3.71767c-0.40471-1.22437-2.02345-4.67109-3.70052-4.47904
		c-1.65651,0.18863-3.25468-2.70595-4.58537-2.19836c-0.30522,0.12004-0.98772-0.08917-1.25179-0.37726
		c-0.70308-0.75794-0.77852-0.07202-1.50217-0.49386c-0.62076-0.3601-0.57274-0.84024-1.50902-0.25722
		c-0.72021,0.44242-0.59676-0.20234-1.33067-0.39783C215.40909,56.76693,215.07642,56.82524,214.75404,56.93841"/>
</g>
</svg>
